<svg width="182" height="38" viewBox="0 0 182 38" fill="none" xmlns="http://www.w3.org/2000/svg">
<g clip-path="url(#clip0_63_342)">
<path d="M35.2182 13.0012C35.9368 11.5483 37.0488 10.3263 38.4276 9.47443C39.7926 8.64698 41.3626 8.21907 42.9588 8.23936C44.2883 8.20918 45.6041 8.51228 46.7866 9.12103C47.8178 9.65593 48.7155 10.4157 49.4136 11.3442V8.55667H54.3866V28.0981H49.4136V25.2404C48.7325 26.1979 47.8317 26.9783 46.7866 27.5157C45.5944 28.1334 44.2668 28.4434 42.9245 28.4172C41.3348 28.4332 39.7737 27.992 38.4276 27.1461C37.0488 26.2714 35.9381 25.0328 35.2182 23.5672C34.4321 22.026 34.0391 20.2561 34.0391 18.2571C34.0391 16.281 34.4321 14.529 35.2182 13.0012ZM48.7087 15.2406C48.2715 14.417 47.6119 13.7329 46.8047 13.2663C46.0229 12.8118 45.1341 12.5741 44.23 12.5775C43.323 12.5693 42.4312 12.81 41.6517 13.2735C40.8721 13.7371 40.2346 14.4056 39.8088 15.2063C39.3075 16.1434 39.059 17.1948 39.0875 18.2571C39.0618 19.33 39.3099 20.3919 39.8088 21.3422C40.2475 22.1786 40.9058 22.8798 41.7128 23.3706C42.4731 23.834 43.3466 24.0786 44.2372 24.0774C45.1413 24.08 46.0298 23.8422 46.8119 23.3885C47.6202 22.9196 48.2801 22.2322 48.7159 21.4052C49.1871 20.5469 49.422 19.518 49.4208 18.3184C49.4196 17.1188 49.1823 16.0928 48.7087 15.2406Z" fill="black"/>
<path d="M75.9011 8.55664V28.098H70.9284V25.628C70.2775 26.4878 69.4231 27.1725 68.442 27.6203C67.3984 28.1066 66.2593 28.353 65.1081 28.3415C63.6953 28.3695 62.2989 28.0364 61.0511 27.3734C59.8667 26.7164 58.9037 25.723 58.2834 24.5191C57.6128 23.2618 57.2773 21.7628 57.2773 20.0223V8.55664H62.216V19.3155C62.216 20.8661 62.6041 22.0591 63.3807 22.8945C64.1572 23.7299 65.215 24.1507 66.554 24.1567C67.9173 24.1567 68.987 23.736 69.7635 22.8945C70.54 22.053 70.9284 20.8601 70.9284 19.3155V8.55664H75.9011Z" fill="black"/>
<path d="M84.9652 12.6195V22.071C84.9652 22.7311 85.1238 23.2076 85.4412 23.501C85.7585 23.7942 86.2936 23.9408 87.0459 23.9408H89.3394V28.1041H86.2364C82.0737 28.1041 79.9925 26.0818 79.9925 22.0369V12.6195H77.6719V8.56266H79.9997V3.73047H84.9724V8.56266H89.3466V12.6195H84.9652Z" fill="black"/>
<path d="M94.9454 27.1623C93.4525 26.3396 92.2232 25.1103 91.4007 23.6174C90.541 22.0908 90.1113 20.3275 90.1113 18.3273C90.1113 16.3271 90.5525 14.5637 91.4348 13.0371C92.2839 11.5401 93.5365 10.3118 95.05 9.49232C96.6291 8.66912 98.3835 8.23926 100.164 8.23926C101.945 8.23926 103.7 8.66912 105.279 9.49232C106.788 10.3137 108.038 11.5418 108.885 13.0371C109.766 14.5637 110.206 16.3271 110.206 18.3273C110.206 20.3275 109.759 22.0908 108.863 23.6174C107.991 25.1144 106.722 26.3413 105.196 27.1623C103.607 28.0124 101.83 28.4466 100.028 28.4243C98.2534 28.4497 96.5022 28.0149 94.9454 27.1623ZM102.552 23.4588C103.358 23.0041 104.014 22.3243 104.438 21.5026C104.908 20.6322 105.143 19.5738 105.143 18.3273C105.143 16.4701 104.656 15.0415 103.681 14.0414C103.221 13.5569 102.665 13.1735 102.048 12.9155C101.432 12.6576 100.768 12.5307 100.1 12.5431C99.4372 12.5286 98.7785 12.6546 98.1675 12.9129C97.5566 13.1711 97.0072 13.5557 96.5554 14.0414C95.6035 15.0427 95.1274 16.4713 95.1274 18.3273C95.1274 20.1832 95.5914 21.6118 96.5195 22.6132C96.9629 23.1001 97.5059 23.4859 98.1116 23.7445C98.7174 24.003 99.3716 24.1282 100.03 24.1114C100.913 24.1146 101.782 23.8897 102.552 23.4588Z" fill="black"/>
<path d="M119.865 9.13913C121.046 8.52378 122.362 8.21386 123.693 8.2376C125.289 8.2176 126.859 8.6455 128.224 9.47267C129.599 10.3211 130.71 11.5362 131.433 12.9814C132.221 14.4984 132.615 16.2564 132.616 18.2554C132.617 20.2544 132.223 22.0238 131.433 23.5635C130.713 25.029 129.602 26.2674 128.224 27.1426C126.866 27.9915 125.294 28.4327 123.693 28.4138C122.377 28.4397 121.075 28.1366 119.906 27.5322C118.869 26.9917 117.96 26.2333 117.243 25.3089V37.4075H112.305V8.55852H117.243V11.3803C117.932 10.4402 118.829 9.67296 119.865 9.13913ZM126.848 15.2064C126.407 14.3897 125.748 13.7118 124.944 13.2483C124.166 12.8037 123.284 12.5723 122.387 12.5775C121.499 12.5751 120.627 12.8131 119.863 13.2663C119.059 13.7406 118.4 14.4267 117.959 15.2497C117.485 16.2018 117.238 17.2511 117.238 18.3148C117.238 19.3786 117.485 20.4278 117.959 21.3801C118.397 22.2126 119.057 22.9078 119.865 23.3886C120.635 23.8427 121.513 24.0804 122.407 24.0773C123.301 24.0742 124.177 23.83 124.944 23.3706C125.748 22.8838 126.406 22.1892 126.848 21.3602C127.351 20.4048 127.599 19.3363 127.569 18.2571C127.598 17.195 127.351 16.1436 126.85 15.2064H126.848Z" fill="black"/>
<path d="M134.996 5.40687C134.723 5.13745 134.506 4.81633 134.357 4.46223C134.209 4.10812 134.133 3.72806 134.133 3.34419C134.133 2.9603 134.209 2.58025 134.357 2.22613C134.506 1.87202 134.723 1.55091 134.996 1.28149C135.592 0.746272 136.364 0.450195 137.165 0.450195C137.966 0.450195 138.739 0.746272 139.334 1.28149C139.608 1.55091 139.825 1.87202 139.973 2.22613C140.121 2.58025 140.198 2.9603 140.198 3.34419C140.198 3.72806 140.121 4.10812 139.973 4.46223C139.825 4.81633 139.608 5.13745 139.334 5.40687C138.739 5.94208 137.966 6.23816 137.165 6.23816C136.364 6.23816 135.592 5.94208 134.996 5.40687ZM139.599 8.56403V28.0982H134.661V8.55679L139.599 8.56403Z" fill="black"/>
<path d="M147.605 1.99707V28.098H142.668V1.99707H147.605Z" fill="black"/>
<path d="M154.52 27.1623C153.026 26.3403 151.797 25.1111 150.975 23.6174C150.115 22.0897 149.686 20.3262 149.688 18.3273C149.689 16.3283 150.129 14.5649 151.009 13.0371C151.858 11.5401 153.111 10.3118 154.624 9.49232C156.203 8.66912 157.958 8.23926 159.739 8.23926C161.519 8.23926 163.274 8.66912 164.853 9.49232C166.366 10.3118 167.619 11.5401 168.468 13.0371C169.349 14.5637 169.79 16.3271 169.792 18.3273C169.793 20.3275 169.34 22.0908 168.434 23.6174C167.559 25.1152 166.288 26.3421 164.759 27.1623C163.172 28.0126 161.394 28.4468 159.594 28.4243C157.822 28.4481 156.074 28.0133 154.52 27.1623ZM162.12 23.4588C162.926 23.0049 163.583 22.3247 164.007 21.5026C164.476 20.6322 164.711 19.5738 164.712 18.3273C164.712 16.4701 164.224 15.0415 163.248 14.0414C162.788 13.5569 162.233 13.1734 161.617 12.9154C161 12.6575 160.337 12.5307 159.669 12.5431C159.006 12.5284 158.347 12.6543 157.736 12.9126C157.125 13.1708 156.576 13.5555 156.125 14.0414C155.171 15.0427 154.695 16.4713 154.695 18.3273C154.695 20.1832 155.159 21.6118 156.088 22.6132C156.532 23.1003 157.075 23.4861 157.681 23.7447C158.286 24.0032 158.941 24.1282 159.599 24.1114C160.481 24.1146 161.35 23.8898 162.12 23.4588Z" fill="black"/>
<path d="M177.619 12.6195V22.071C177.619 22.7311 177.778 23.2076 178.095 23.501C178.412 23.7942 178.947 23.9408 179.7 23.9408H181.993V28.1041H178.888C174.727 28.1041 172.646 26.0818 172.646 22.0369V12.6195H170.318V8.56266H172.646V3.73047H177.619V8.56266H181.993V12.6195H177.619Z" fill="black"/>
<path d="M14.3582 0.345703L0.00585938 28.8106L10.377 24.2956L14.3582 16.8004L18.3393 24.2956L28.7086 28.8106L14.3582 0.345703Z" fill="#9159FF"/>
<path d="M17.9792 30.0848L14.3587 36.5451L10.7363 30.0848L14.3587 23.2656L17.9792 30.0848Z" fill="#9159FF"/>
</g>
<defs>
<clipPath id="clip0_63_342">
<rect width="181.988" height="37.0607" fill="white" transform="translate(0.00585938 0.292969)"/>
</clipPath>
</defs>
</svg>
