<svg width="183" height="38" viewBox="0 0 183 38" fill="none" xmlns="http://www.w3.org/2000/svg">
<g clip-path="url(#clip0_40_4140)">
<path d="M36.0541 13.051C36.7727 11.5981 37.8847 10.3761 39.2636 9.52424C40.6286 8.69679 42.1986 8.26888 43.7947 8.28916C45.1242 8.25899 46.4401 8.56208 47.6225 9.17083C48.6538 9.70574 49.5514 10.4655 50.2495 11.394V8.60648H55.2225V28.1479H50.2495V25.2902C49.5684 26.2477 48.6676 27.0281 47.6225 27.5655C46.4303 28.1832 45.1028 28.4932 43.7604 28.4671C42.1707 28.483 40.6097 28.0418 39.2636 27.1959C37.8847 26.3212 36.7741 25.0826 36.0541 23.617C35.268 22.0758 34.875 20.3059 34.875 18.3069C34.875 16.3308 35.268 14.5788 36.0541 13.051ZM49.5446 15.2904C49.1075 14.4668 48.4478 13.7827 47.6407 13.3161C46.8589 12.8616 45.97 12.6239 45.0659 12.6273C44.1589 12.6191 43.2671 12.8598 42.4877 13.3233C41.708 13.7869 41.0706 14.4554 40.6448 15.2561C40.1435 16.1932 39.895 17.2446 39.9234 18.3069C39.8977 19.3798 40.1458 20.4417 40.6448 21.392C41.0834 22.2284 41.7418 22.9296 42.5487 23.4204C43.309 23.8838 44.1825 24.1284 45.0731 24.1272C45.9772 24.1298 46.8657 23.892 47.6479 23.4383C48.4562 22.9694 49.1161 22.282 49.5518 21.455C50.0231 20.5967 50.2579 19.5678 50.2567 18.3682C50.2556 17.1686 50.0182 16.1426 49.5446 15.2904Z" fill="white"/>
<path d="M76.7371 8.60645V28.1478H71.7643V25.6778C71.1134 26.5376 70.259 27.2223 69.2779 27.6701C68.2344 28.1564 67.0952 28.4028 65.944 28.3913C64.5312 28.4193 63.1348 28.0862 61.887 27.4232C60.7027 26.7662 59.7397 25.7728 59.1194 24.5689C58.4488 23.3116 58.1133 21.8126 58.1133 20.0721V8.60645H63.0519V19.3653C63.0519 20.9159 63.4401 22.1089 64.2166 22.9443C64.9931 23.7797 66.0509 24.2005 67.39 24.2065C68.7532 24.2065 69.8229 23.7858 70.5994 22.9443C71.3759 22.1028 71.7643 20.9099 71.7643 19.3653V8.60645H76.7371Z" fill="white"/>
<path d="M85.8012 12.6683V22.1199C85.8012 22.7799 85.9597 23.2564 86.2771 23.5498C86.5945 23.843 87.1295 23.9897 87.8818 23.9897H90.1753V28.1529H87.0723C82.9097 28.1529 80.8284 26.1306 80.8284 22.0857V12.6683H78.5078V8.61148H80.8356V3.7793H85.8084V8.61148H90.1825V12.6683H85.8012Z" fill="white"/>
<path d="M95.7813 27.2116C94.2884 26.3889 93.0591 25.1596 92.2366 23.6667C91.377 22.1402 90.9473 20.3769 90.9473 18.3766C90.9473 16.3764 91.3885 14.613 92.2707 13.0865C93.1198 11.5894 94.3725 10.3611 95.8859 9.54164C97.4651 8.71844 99.2194 8.28857 101 8.28857C102.781 8.28857 104.535 8.71844 106.115 9.54164C107.624 10.363 108.874 11.5911 109.721 13.0865C110.602 14.613 111.042 16.3764 111.042 18.3766C111.042 20.3769 110.594 22.1402 109.699 23.6667C108.827 25.1637 107.557 26.3906 106.032 27.2116C104.443 28.0617 102.665 28.4959 100.864 28.4736C99.0893 28.499 97.3381 28.0642 95.7813 27.2116ZM103.388 23.5081C104.194 23.0534 104.85 22.3736 105.274 21.5519C105.744 20.6815 105.979 19.6231 105.979 18.3766C105.979 16.5195 105.492 15.0908 104.517 14.0908C104.057 13.6062 103.501 13.2228 102.884 12.9648C102.268 12.7069 101.604 12.58 100.936 12.5924C100.273 12.5779 99.6144 12.7039 99.0035 12.9622C98.3926 13.2204 97.8431 13.605 97.3913 14.0908C96.4395 15.092 95.9633 16.5207 95.9633 18.3766C95.9633 20.2325 96.4274 21.6611 97.3554 22.6625C97.7988 23.1494 98.3419 23.5352 98.9475 23.7939C99.5533 24.0523 100.208 24.1775 100.866 24.1608C101.749 24.1639 102.618 23.939 103.388 23.5081Z" fill="white"/>
<path d="M120.701 9.18844C121.881 8.5731 123.198 8.26317 124.529 8.28691C126.125 8.26692 127.695 8.69481 129.06 9.52199C130.435 10.3705 131.546 11.5855 132.269 13.0307C133.056 14.5477 133.451 16.3057 133.452 18.3047C133.453 20.3037 133.059 22.0731 132.269 23.6129C131.549 25.0783 130.438 26.3167 129.06 27.1919C127.702 28.0408 126.13 28.482 124.529 28.4631C123.213 28.4891 121.911 28.1859 120.742 27.5815C119.705 27.041 118.796 26.2826 118.079 25.3582V37.4568H113.141V8.60784H118.079V11.4296C118.768 10.4895 119.665 9.72227 120.701 9.18844ZM127.684 15.2557C127.243 14.439 126.584 13.7611 125.78 13.2976C125.002 12.853 124.12 12.6216 123.223 12.6269C122.335 12.6244 121.463 12.8624 120.699 13.3156C119.895 13.7899 119.236 14.476 118.795 15.299C118.321 16.2511 118.074 17.3004 118.074 18.3642C118.074 19.428 118.321 20.4771 118.795 21.4294C119.233 22.2619 119.892 22.9571 120.701 23.4379C121.471 23.892 122.349 24.1298 123.243 24.1266C124.137 24.1235 125.013 23.8793 125.78 23.4199C126.584 22.9331 127.242 22.2385 127.684 21.4095C128.187 20.4541 128.435 19.3856 128.405 18.3065C128.434 17.2443 128.186 16.1929 127.686 15.2557H127.684Z" fill="white"/>
<path d="M135.832 5.45618C135.559 5.18677 135.342 4.86565 135.193 4.51154C135.045 4.15744 134.969 3.77737 134.969 3.3935C134.969 3.00961 135.045 2.62956 135.193 2.27545C135.342 1.92133 135.559 1.60023 135.832 1.3308C136.428 0.795589 137.2 0.499512 138.001 0.499512C138.802 0.499512 139.575 0.795589 140.17 1.3308C140.444 1.60023 140.661 1.92133 140.809 2.27545C140.957 2.62956 141.034 3.00961 141.034 3.3935C141.034 3.77737 140.957 4.15744 140.809 4.51154C140.661 4.86565 140.444 5.18677 140.17 5.45618C139.575 5.9914 138.802 6.28747 138.001 6.28747C137.2 6.28747 136.428 5.9914 135.832 5.45618ZM140.435 8.61334V28.1475H135.497V8.60611L140.435 8.61334Z" fill="white"/>
<path d="M148.441 2.04688V28.1478H143.504V2.04688H148.441Z" fill="white"/>
<path d="M155.356 27.2116C153.862 26.3897 152.633 25.1604 151.811 23.6667C150.951 22.139 150.522 20.3755 150.523 18.3766C150.525 16.3776 150.965 14.6142 151.845 13.0865C152.694 11.5894 153.947 10.3611 155.46 9.54163C157.039 8.71844 158.794 8.28857 160.575 8.28857C162.355 8.28857 164.11 8.71844 165.689 9.54163C167.202 10.3611 168.455 11.5894 169.304 13.0865C170.185 14.613 170.626 16.3764 170.627 18.3766C170.629 20.3769 170.176 22.1402 169.27 23.6667C168.395 25.1645 167.124 26.3914 165.595 27.2116C164.007 28.0619 162.23 28.4961 160.43 28.4736C158.658 28.4974 156.91 28.0627 155.356 27.2116ZM162.956 23.5081C163.762 23.0542 164.418 22.374 164.843 21.5519C165.312 20.6815 165.547 19.6231 165.548 18.3766C165.548 16.5195 165.06 15.0908 164.084 14.0908C163.624 13.6062 163.069 13.2227 162.452 12.9647C161.836 12.7068 161.173 12.58 160.505 12.5924C159.842 12.5777 159.183 12.7036 158.572 12.9619C157.961 13.2201 157.412 13.6049 156.96 14.0908C156.007 15.092 155.531 16.5206 155.531 18.3766C155.531 20.2325 155.995 21.6611 156.924 22.6625C157.368 23.1496 157.911 23.5354 158.516 23.794C159.122 24.0525 159.777 24.1775 160.435 24.1607C161.317 24.1639 162.186 23.9392 162.956 23.5081Z" fill="white"/>
<path d="M178.455 12.6683V22.1199C178.455 22.7799 178.614 23.2564 178.931 23.5498C179.248 23.843 179.783 23.9897 180.536 23.9897H182.829V28.1529H179.724C175.563 28.1529 173.482 26.1306 173.482 22.0857V12.6683H171.154V8.61148H173.482V3.7793H178.455V8.61148H182.829V12.6683H178.455Z" fill="white"/>
<path d="M15.1941 0.39502L0.841797 28.8599L11.213 24.3449L15.1941 16.8497L19.1752 24.3449L29.5445 28.8599L15.1941 0.39502Z" fill="#9159FF"/>
<path d="M18.8151 30.1346L15.1946 36.5949L11.5723 30.1346L15.1946 23.3154L18.8151 30.1346Z" fill="#9159FF"/>
</g>
<defs>
<clipPath id="clip0_40_4140">
<rect width="181.988" height="37.0607" fill="white" transform="translate(0.841797 0.342285)"/>
</clipPath>
</defs>
</svg>
